<svg width="16" height="16" viewBox="0 0 16 16" fill="none" xmlns="http://www.w3.org/2000/svg">
<rect width="16" height="16" rx="3" fill="#FF7373"/>
<path d="M12.2 3.80713C12.0755 3.68229 11.9064 3.61214 11.73 3.61214C11.5537 3.61214 11.3846 3.68229 11.26 3.80713L8.00001 7.06046L4.74001 3.80046C4.61546 3.67562 4.44636 3.60547 4.27001 3.60547C4.09367 3.60547 3.92457 3.67562 3.80001 3.80046C3.54001 4.06046 3.54001 4.48046 3.80001 4.74046L7.06001 8.00046L3.80001 11.2605C3.54001 11.5205 3.54001 11.9405 3.80001 12.2005C4.06001 12.4605 4.48001 12.4605 4.74001 12.2005L8.00001 8.94046L11.26 12.2005C11.52 12.4605 11.94 12.4605 12.2 12.2005C12.46 11.9405 12.46 11.5205 12.2 11.2605L8.94001 8.00046L12.2 4.74046C12.4533 4.48713 12.4533 4.06046 12.2 3.80713Z" fill="white"/>
</svg>
