<svg width="88" height="88" viewBox="0 0 88 88" fill="none" xmlns="http://www.w3.org/2000/svg">
<path d="M64.2442 23.9895C61.5948 21.3756 58.0741 19.9531 54.34 19.9709C50.6059 20.0064 47.1207 21.4823 44.5068 24.1317C41.893 26.7812 40.4704 30.3019 40.4882 34.036C40.4882 34.6228 40.9683 35.1029 41.5551 35.1029C42.1419 35.1029 42.622 34.6228 42.622 34.036C42.6042 30.8709 43.8133 27.9014 46.0182 25.6432C48.2231 23.3849 51.1926 22.1402 54.3577 22.1224C57.5228 22.1046 60.4923 23.3138 62.7506 25.5187C65.0088 27.7236 66.2535 30.6931 66.2713 33.8582C66.2891 37.0233 65.0799 39.9928 62.875 42.251C60.6702 44.5093 57.7007 45.754 54.5356 45.7718C53.9488 45.7718 53.4687 46.2519 53.4687 46.8386C53.4687 47.4254 53.9488 47.9055 54.5356 47.9055C58.2697 47.87 61.7548 46.3941 64.3687 43.7447C66.9826 41.0952 68.4406 37.5567 68.4051 33.8226C68.3695 30.0885 66.8937 26.6033 64.2442 23.9895Z" fill="#939BB2"/>
<path d="M85.5642 39.8855L82.2568 38.5163C82.7725 35.4401 82.7725 32.3462 82.2568 29.2878L85.5642 27.9186C86.5066 27.5452 87.2712 26.7984 87.6624 25.8204C88.0714 24.8424 88.0714 23.7755 87.6624 22.7975L85.8131 18.3166C85.4041 17.3386 84.6573 16.5918 83.6793 16.1828C82.7014 15.7739 81.6345 15.7739 80.6565 16.1828L77.3491 17.552C75.5532 15.027 73.3661 12.8399 70.8234 11.0262L72.1925 7.71887C73.0283 5.70956 72.0681 3.39798 70.0588 2.56225L65.5956 0.71298C63.5863 -0.122748 61.2747 0.83745 60.439 2.84675L59.0698 6.1541C55.9936 5.63844 52.8997 5.63844 49.8413 6.1541L48.4721 2.84675C48.0631 1.86877 47.3163 1.12195 46.3383 0.71298C45.3603 0.304007 44.2934 0.304007 43.3155 0.71298L38.8523 2.56225C37.8743 2.97122 37.1275 3.71804 36.7186 4.69602C36.3096 5.674 36.3096 6.74089 36.7186 7.71887L38.0877 11.0262C35.5628 12.8221 33.3756 15.0093 31.5619 17.552L28.2546 16.1828C27.2766 15.7739 26.2097 15.7739 25.2317 16.1828C24.2538 16.5918 23.5069 17.3386 23.098 18.3166L21.2309 22.7797C20.3952 24.789 21.3554 27.1006 23.3647 27.9364L27.4722 29.6434C28.0234 29.8745 28.6458 29.6078 28.8592 29.0744C29.0903 28.5232 28.8236 27.9008 28.2902 27.6874L24.1826 25.9804C23.258 25.5892 22.8135 24.5401 23.2047 23.6155L25.0539 19.1523C25.4273 18.2277 26.4942 17.7832 27.4189 18.1744L31.5264 19.8814C31.9887 20.077 32.5399 19.9169 32.8244 19.4902C34.727 16.6452 37.1453 14.2269 39.9726 12.342C40.3993 12.0575 40.5593 11.5241 40.3637 11.044L38.6567 6.93648C38.4789 6.49195 38.4789 5.99407 38.6567 5.54953C38.8345 5.105 39.1902 4.74937 39.6347 4.57155L44.1156 2.72228C44.5602 2.54447 45.058 2.54447 45.5026 2.72228C45.9471 2.9001 46.3027 3.25573 46.4806 3.70026L48.1876 7.80777C48.3832 8.27009 48.8811 8.53681 49.3789 8.44791C52.7396 7.77221 56.1359 7.77221 59.4966 8.44791C59.9945 8.5546 60.4923 8.28787 60.6879 7.80777L62.395 3.70026C62.7861 2.77563 63.8353 2.33109 64.7599 2.72228L69.223 4.57155C70.1477 4.96274 70.5922 6.01185 70.201 6.93648L68.5295 11.0084C68.334 11.4708 68.494 12.022 68.9207 12.3065C71.7658 14.2091 74.184 16.6274 76.0689 19.4546C76.3534 19.8814 76.8868 20.0414 77.3669 19.8458L81.4744 18.1388C81.919 17.961 82.4169 17.961 82.8614 18.1388C83.3059 18.3166 83.6616 18.6722 83.8394 19.1168L85.6886 23.5977C85.8664 24.0422 85.8664 24.5401 85.6886 24.9846C85.5108 25.4292 85.1552 25.7848 84.7107 25.9626L80.6031 27.6696C80.1408 27.8652 79.8741 28.3631 79.963 28.861C80.6387 32.2217 80.6209 35.618 79.963 38.9786C79.8563 39.4765 80.123 39.9744 80.6031 40.17L84.7107 41.877C85.6353 42.2682 86.0798 43.3173 85.6886 44.2419L83.8394 48.7051C83.4482 49.6297 82.3991 50.0743 81.4744 49.6831L77.3669 47.976C76.9046 47.7805 76.3534 47.9405 76.0689 48.3672C74.1663 51.2123 71.748 53.6305 68.9207 55.5154C68.494 55.7999 68.334 56.3333 68.5295 56.8134L70.2366 60.9209C70.4144 61.3655 70.4144 61.8634 70.2366 62.3079C70.0588 62.7524 69.7031 63.1081 69.2586 63.2859L64.7777 65.1351C64.3331 65.313 63.8352 65.313 63.3907 65.1351C62.9462 64.9573 62.5905 64.6017 62.4127 64.1572L60.7057 60.0496C60.4746 59.4984 59.8522 59.2495 59.3188 59.4806C58.7675 59.7118 58.5186 60.3341 58.7498 60.8676L60.4568 64.9751C60.8657 65.9531 61.6126 66.6999 62.5905 67.1089C63.0706 67.3045 63.5863 67.4112 64.102 67.4112C64.6176 67.4112 65.1333 67.3045 65.6134 67.1089L70.0943 65.2596C71.0723 64.8506 71.8191 64.1038 72.2281 63.1258C72.6371 62.1479 72.6371 61.081 72.2281 60.103L70.8589 56.7956C73.3839 54.9997 75.571 52.8126 77.3847 50.2699L80.6921 51.639C81.67 52.048 82.7369 52.048 83.7149 51.639C84.6929 51.2301 85.4397 50.4832 85.8487 49.5053L87.6979 45.0421C88.5337 43.0328 87.5735 40.7212 85.5642 39.8855Z" fill="#939BB2"/>
<path d="M25.712 51.8711C20.1998 51.8711 15.7189 56.3698 15.7189 61.882C15.7189 67.3943 20.1998 71.8574 25.712 71.8574C31.2243 71.8574 35.7052 67.3765 35.7052 61.8643C35.7052 56.352 31.2243 51.8711 25.712 51.8711ZM25.712 69.7414C21.3734 69.7414 17.8526 66.2207 17.8526 61.882C17.8526 57.5434 21.3734 54.0226 25.712 54.0226C30.0507 54.0226 33.5714 57.5434 33.5714 61.882C33.5714 66.2207 30.0507 69.7414 25.712 69.7414Z" fill="#939BB2"/>
<path d="M48.2588 56.9195H45.8939C45.396 54.8391 44.5781 52.8831 43.4578 51.0516L45.1293 49.3802C45.7339 48.7756 46.0539 47.9932 46.0539 47.1397C46.0539 46.304 45.7339 45.5038 45.1293 44.8993L42.6399 42.4099C42.0353 41.8053 41.2529 41.4852 40.3994 41.4852C39.5459 41.4852 38.7635 41.8053 38.159 42.4099L36.4875 44.0813C34.656 42.9611 32.7001 42.1609 30.6196 41.6453V39.2803C30.6196 37.5378 29.1971 36.1152 27.4545 36.1152H23.9338C22.1912 36.1152 20.7687 37.5378 20.7687 39.2803V41.6453C18.6883 42.1431 16.7323 42.9611 14.9008 44.0813L13.2294 42.4099C12.6248 41.8053 11.8424 41.4852 10.9889 41.4852C10.1532 41.4852 9.35304 41.8053 8.74847 42.4099L6.25907 44.8993C5.6545 45.5038 5.33443 46.2862 5.33443 47.1397C5.33443 47.9755 5.6545 48.7756 6.25907 49.3802L7.93052 51.0516C6.81029 52.8831 6.01013 54.8391 5.49447 56.9195H3.1651C1.42252 56.9195 0 58.342 0 60.0846V63.6053C0.0177814 65.3835 1.42252 66.7882 3.1651 66.7882H5.53003C6.02791 68.8686 6.84585 70.8246 7.96609 72.6561L6.29463 74.3275C5.69006 74.9321 5.37 75.7145 5.37 76.568C5.37 77.4037 5.69006 78.2039 6.29463 78.8085L8.78403 81.2979C9.3886 81.9024 10.171 82.2225 11.0245 82.2225C11.8602 82.2225 12.6604 81.9024 13.265 81.2979L14.9364 79.6264C16.7679 80.7467 18.7239 81.5468 20.8043 82.0625V84.4274C20.8043 86.17 22.2268 87.5925 23.9694 87.5925H27.4901C29.2327 87.5925 30.6552 86.17 30.6552 84.4274V82.0447C32.7356 81.5468 34.6916 80.7289 36.5231 79.6086L38.1945 81.2801C38.7991 81.8847 39.5815 82.2047 40.435 82.2047C41.2885 82.2047 42.0709 81.8847 42.6755 81.2801L45.1649 78.7907C45.7694 78.1861 46.0895 77.4037 46.0895 76.5502C46.0895 75.7145 45.7694 74.9143 45.1649 74.3098L43.4934 72.6383C44.6136 70.8068 45.4138 68.8509 45.9295 66.7704H48.2588C50.0014 66.7704 51.4239 65.3479 51.4239 63.6053V60.0846C51.4239 58.342 50.0014 56.9195 48.2588 56.9195ZM49.2902 63.6409C49.2902 64.2099 48.8278 64.6722 48.2588 64.6722H45.0226C44.5069 64.6722 44.0802 65.0279 43.9735 65.5257C43.4934 67.9262 42.5688 70.1845 41.1996 72.2116C40.9151 72.6383 40.9684 73.2073 41.3241 73.563L43.6179 75.8568C43.8135 76.0523 43.9202 76.3013 43.9202 76.5858C43.9202 76.8525 43.8135 77.1192 43.6179 77.3148L41.1285 79.8042C40.9329 79.9998 40.6839 80.1065 40.3994 80.1065C40.1149 80.1065 39.866 79.9998 39.6704 79.8042L37.3766 77.5104C37.021 77.1548 36.452 77.1015 36.0252 77.386C33.9803 78.7551 31.7399 79.6798 29.3394 80.1599C28.8415 80.2666 28.4859 80.6933 28.4859 81.209V84.4452C28.4859 85.0142 28.0236 85.4765 27.4545 85.4765H23.9338C23.3648 85.4765 22.9025 85.0142 22.9025 84.4452V81.209C22.9025 80.6933 22.5469 80.2666 22.049 80.1599C19.6485 79.6798 17.3902 78.7551 15.3632 77.386C15.1854 77.2615 14.972 77.2081 14.7764 77.2081C14.5097 77.2081 14.2252 77.3148 14.0296 77.5282L11.7358 79.822C11.5402 80.0176 11.2912 80.1243 11.0067 80.1243C10.74 80.1243 10.4733 80.0176 10.2777 79.822L7.78827 77.3326C7.59268 77.137 7.48599 76.8881 7.48599 76.6036C7.48599 76.3369 7.59268 76.0701 7.78827 75.8745L10.0821 73.5807C10.4377 73.2251 10.4911 72.6561 10.2065 72.2293C8.83738 70.1845 7.91274 67.944 7.43264 65.5435C7.32595 65.0456 6.8992 64.69 6.38354 64.69H3.1651C2.59609 64.69 2.13377 64.2277 2.13377 63.6587V60.1202H2.15155C2.15155 59.5512 2.61387 59.0889 3.18288 59.0889H6.4191C6.93476 59.0889 7.36152 58.7332 7.4682 58.2353C7.9483 55.8349 8.87294 53.5766 10.2421 51.5495C10.5266 51.1228 10.4733 50.5538 10.1176 50.1981L7.80605 47.9043C7.61046 47.7087 7.50377 47.4598 7.50377 47.1753C7.50377 46.9086 7.61046 46.6418 7.80605 46.4463L10.2955 43.9569C10.4911 43.7613 10.74 43.6546 11.0245 43.6546C11.2912 43.6546 11.5579 43.7613 11.7535 43.9569L14.0473 46.2507C14.403 46.6063 14.972 46.6596 15.3987 46.3751C17.4436 45.006 19.6841 44.0813 22.0845 43.6012C22.5824 43.4945 22.9381 43.0678 22.9381 42.5521V39.3159C22.9381 38.7469 23.4004 38.2846 23.9694 38.2846H27.4901C28.0591 38.2846 28.5214 38.7469 28.5214 39.3159V42.5699C28.5214 43.0856 28.8771 43.5123 29.3749 43.619C31.7754 44.0991 34.0337 45.0237 36.0608 46.3929C36.4875 46.6774 37.0565 46.6241 37.4122 46.2684L39.706 43.9746C39.9016 43.779 40.1505 43.6723 40.435 43.6723C40.7195 43.6723 40.9684 43.779 41.164 43.9746L43.6534 46.464C43.849 46.6596 43.9557 46.9086 43.9557 47.1931C43.9557 47.4598 43.849 47.7265 43.6534 47.9221L41.3241 50.1981C40.9684 50.5538 40.9151 51.1228 41.1996 51.5495C42.5688 53.5944 43.4934 55.8349 43.9735 58.2353C44.0802 58.7332 44.5069 59.0889 45.0226 59.0889H48.2588C48.8278 59.0889 49.2902 59.5512 49.2902 60.1202V63.6409Z" fill="#939BB2"/>
</svg>
