<svg width="16" height="16" viewBox="0 0 16 16" fill="none" xmlns="http://www.w3.org/2000/svg">
<rect width="16" height="16" rx="3" fill="#FFA726"/>
<path fill-rule="evenodd" clip-rule="evenodd" d="M5.77778 2.44531C5.16667 2.44531 4.66667 2.94531 4.66667 3.55642V5.31753C4.66667 5.61198 4.78334 5.89531 4.99445 6.10642L6.88889 8.00087L4.98889 9.90087C4.78334 10.112 4.66667 10.3953 4.66667 10.6898V12.4453C4.66667 13.0564 5.16667 13.5564 5.77778 13.5564H10.2222C10.8333 13.5564 11.3333 13.0564 11.3333 12.4453V10.6898C11.3333 10.3953 11.2167 10.112 11.0111 9.90642L9.11112 8.00087L11.0056 6.11198C11.2167 5.90087 11.3333 5.61753 11.3333 5.32309V3.55642C11.3333 2.94531 10.8333 2.44531 10.2222 2.44531H5.77778ZM10.2222 10.5009V11.8898C10.2222 12.1953 9.9722 12.4453 9.66664 12.4453H6.33331C6.02776 12.4453 5.77776 12.1953 5.77776 11.8898V10.5009L7.99998 8.27865L10.2222 10.5009ZM5.77776 5.50084L7.99998 7.72306L10.2222 5.50084V4.11195C10.2222 3.8064 9.9722 3.5564 9.66664 3.5564H6.33331C6.02776 3.5564 5.77776 3.8064 5.77776 4.11195V5.50084Z" fill="white"/>
</svg>
