<svg width="16" height="16" viewBox="0 0 16 16" fill="none" xmlns="http://www.w3.org/2000/svg">
<rect width="16" height="16" rx="3" fill="#BA68C8"/>
<path fill-rule="evenodd" clip-rule="evenodd" d="M10.6667 5.33464C10.6667 6.80797 9.47334 8.0013 8.00001 8.0013C6.52667 8.0013 5.33334 6.80797 5.33334 5.33464C5.33334 3.8613 6.52667 2.66797 8.00001 2.66797C9.47334 2.66797 10.6667 3.8613 10.6667 5.33464ZM9.33334 5.33464C9.33334 4.6013 8.73334 4.0013 8 4.0013C7.26667 4.0013 6.66667 4.6013 6.66667 5.33464C6.66667 6.06797 7.26667 6.66797 8 6.66797C8.73334 6.66797 9.33334 6.06797 9.33334 5.33464ZM8 8.66797C6.22 8.66797 2.66667 9.5613 2.66667 11.3346V12.668C2.66667 13.0346 2.96667 13.3346 3.33334 13.3346H12.6667C13.0333 13.3346 13.3333 13.0346 13.3333 12.668V11.3346C13.3333 9.5613 9.78 8.66797 8 8.66797ZM4.00001 11.3413V12.0013H12V11.3346C11.8667 10.8613 9.80001 10.0013 8.00001 10.0013C6.20001 10.0013 4.13334 10.8613 4.00001 11.3413Z" fill="white"/>
</svg>
