<svg width="12" height="12" viewBox="0 0 12 12" fill="none" xmlns="http://www.w3.org/2000/svg">
<path d="M9.76123 2.23463C8.67456 1.14796 7.13456 0.521297 5.44123 0.69463C2.99456 0.941297 0.981228 2.92796 0.707895 5.37463C0.341228 8.60796 2.84123 11.3346 5.99456 11.3346C8.12123 11.3346 9.9479 10.088 10.8012 8.29463C11.0146 7.84796 10.6946 7.33463 10.2012 7.33463C9.95456 7.33463 9.72123 7.46796 9.61456 7.68796C8.86123 9.30796 7.05456 10.3346 5.08123 9.89463C3.60123 9.56796 2.4079 8.3613 2.09456 6.8813C1.53456 4.29463 3.50123 2.0013 5.99456 2.0013C7.10123 2.0013 8.0879 2.4613 8.8079 3.18796L7.80123 4.19463C7.38123 4.61463 7.67456 5.33463 8.2679 5.33463H10.6612C11.0279 5.33463 11.3279 5.03463 11.3279 4.66796V2.27463C11.3279 1.6813 10.6079 1.3813 10.1879 1.8013L9.76123 2.23463Z" fill="#69738F"/>
</svg>
