<svg width="18" height="18" viewBox="0 0 18 18" fill="none" xmlns="http://www.w3.org/2000/svg">
<path opacity="0.5" fill-rule="evenodd" clip-rule="evenodd" d="M5.2925 11.8912L3.4125 10.0112L12.0825 10.0112C12.6325 10.0112 13.0825 9.56125 13.0825 9.01125C13.0825 8.46125 12.6325 8.01125 12.0825 8.01125L3.4125 8.01125L5.2925 6.12125C5.6825 5.73125 5.6825 5.10125 5.2925 4.71125C5.10567 4.524 4.85202 4.41876 4.5875 4.41876C4.32298 4.41876 4.06933 4.524 3.8825 4.71125L0.2925 8.30125C-0.0975004 8.69125 -0.0975004 9.32125 0.2925 9.71125L3.8825 13.3012C4.2725 13.6912 4.9025 13.6912 5.2925 13.3012C5.6825 12.9112 5.6825 12.2812 5.2925 11.8912ZM14.9997 2L9.99967 2C9.44967 2 8.99967 1.55 8.99967 1C8.99967 0.45 9.44967 -4.13058e-07 9.99967 -4.37099e-07L15.9997 -6.99368e-07C17.0997 -7.4745e-07 17.9997 0.899999 17.9997 2L17.9997 16C17.9997 17.1 17.0997 18 15.9997 18L9.99967 18C9.44967 18 8.99967 17.55 8.99967 17C8.99967 16.45 9.44967 16 9.99967 16L14.9997 16C15.5497 16 15.9997 15.55 15.9997 15L15.9997 3C15.9997 2.45 15.5497 2 14.9997 2Z" fill="#69738F" fill-opacity="0.5"/>
</svg>
