<?xml version="1.0" encoding="utf-8"?>
<svg xmlns="http://www.w3.org/2000/svg">
    <svg id="exit" viewBox="0 0 18 18">
        <path opacity="0.5" clip-rule="evenodd" d="M5.2925 11.8912L3.4125 10.0112L12.0825 10.0112C12.6325 10.0112 13.0825 9.56125 13.0825 9.01125C13.0825 8.46125 12.6325 8.01125 12.0825 8.01125L3.4125 8.01125L5.2925 6.12125C5.6825 5.73125 5.6825 5.10125 5.2925 4.71125C5.10567 4.524 4.85202 4.41876 4.5875 4.41876C4.32298 4.41876 4.06933 4.524 3.8825 4.71125L0.2925 8.30125C-0.0975004 8.69125 -0.0975004 9.32125 0.2925 9.71125L3.8825 13.3012C4.2725 13.6912 4.9025 13.6912 5.2925 13.3012C5.6825 12.9112 5.6825 12.2812 5.2925 11.8912ZM14.9997 2L9.99967 2C9.44967 2 8.99967 1.55 8.99967 1C8.99967 0.45 9.44967 -4.13058e-07 9.99967 -4.37099e-07L15.9997 -6.99368e-07C17.0997 -7.4745e-07 17.9997 0.899999 17.9997 2L17.9997 16C17.9997 17.1 17.0997 18 15.9997 18L9.99967 18C9.44967 18 8.99967 17.55 8.99967 17C8.99967 16.45 9.44967 16 9.99967 16L14.9997 16C15.5497 16 15.9997 15.55 15.9997 15L15.9997 3C15.9997 2.45 15.5497 2 14.9997 2Z" />
    </svg>
    <svg id="linkedin" viewBox="0 0 24 24">
        <path d="M18.5527 4H5.44733C4.648 4 4 4.648 4 5.44733V18.5526C4 19.352 4.648 20 5.44733 20H18.5526C19.352 20 20 19.352 20 18.5526V5.44733C20 4.648 19.352 4 18.5527 4ZM8.95108 17.8155C8.95108 18.0481 8.76251 18.2366 8.52988 18.2366H6.73696C6.50433 18.2366 6.31577 18.0481 6.31577 17.8155V10.2996C6.31577 10.067 6.50433 9.87841 6.73696 9.87841H8.52988C8.76251 9.87841 8.95108 10.067 8.95108 10.2996V17.8155ZM7.63342 9.16993C6.69273 9.16993 5.93014 8.40733 5.93014 7.46664C5.93014 6.52595 6.69273 5.76335 7.63342 5.76335C8.57412 5.76335 9.33671 6.52595 9.33671 7.46664C9.33671 8.40733 8.57416 9.16993 7.63342 9.16993ZM18.3208 17.8494C18.3208 18.0632 18.1474 18.2366 17.9336 18.2366H16.0096C15.7958 18.2366 15.6224 18.0632 15.6224 17.8494V14.324C15.6224 13.7981 15.7766 12.0195 14.248 12.0195C13.0623 12.0195 12.8218 13.2369 12.7735 13.7832V17.8494C12.7735 18.0632 12.6001 18.2366 12.3862 18.2366H10.5254C10.3116 18.2366 10.1382 18.0632 10.1382 17.8494V10.2657C10.1382 10.0518 10.3116 9.87841 10.5254 9.87841H12.3862C12.6001 9.87841 12.7735 10.0518 12.7735 10.2657V10.9214C13.2132 10.2616 13.8666 9.75229 15.2578 9.75229C18.3385 9.75229 18.3208 12.6305 18.3208 14.2119V17.8494Z" fill="#0077B7"/>
    </svg>
    <svg id="angel" viewBox="0 0 24 24">
        <rect x="4" y="4" width="16" height="16" rx="1.5" fill="black"/>
        <path d="M15.3562 10.9745C15.9498 11.0637 16.3607 11.3312 16.589 11.6879C16.8174 12.0446 16.9543 12.6688 16.9543 13.4713C16.9543 15.0764 16.4521 16.414 15.4475 17.4395C14.4429 18.465 13.1644 19 11.6119 19C11.0183 19 10.4247 18.9108 9.83105 18.6879C9.23744 18.465 8.78082 18.1529 8.36986 17.7962C7.91324 17.3949 7.54795 16.9045 7.31963 16.4586C7.13699 15.9682 7 15.4777 7 14.9873C7 14.4522 7.13699 14.0064 7.3653 13.6943C7.59361 13.3822 8.00457 13.2038 8.50685 13.0701C8.41553 12.8471 8.3242 12.6688 8.27854 12.4904C8.23288 12.3567 8.18721 12.2229 8.18721 12.1338C8.18721 11.8662 8.3242 11.5541 8.64384 11.242C8.96347 10.9299 9.23744 10.7962 9.51142 10.7962C9.6484 10.7962 9.73973 10.7962 9.87671 10.8408C10.0137 10.8854 10.1507 10.9299 10.3333 11.0637C9.92237 9.72611 9.51142 8.61146 9.28311 7.8535C9.05479 7.09554 8.96347 6.6051 8.96347 6.29299C8.96347 5.89172 9.05479 5.57962 9.28311 5.35669C9.46575 5.13376 9.78539 5 10.1507 5C10.7443 5 11.5205 6.33758 12.4795 9.05732C12.6621 9.50318 12.7534 9.85987 12.8447 10.1274C12.9361 9.94904 13.0274 9.63694 13.1644 9.28025C14.1233 6.6051 14.9452 5.26752 15.5845 5.26752C15.9041 5.26752 16.1781 5.35669 16.4064 5.57962C16.589 5.80255 16.726 6.11465 16.726 6.47134C16.726 6.73885 16.6347 7.27389 16.4064 8.03185C16.1324 8.78981 15.8128 9.7707 15.3562 10.9745ZM8.3242 14.8981C8.41553 14.9873 8.55251 15.1656 8.6895 15.3885C9.10046 15.9682 9.51142 16.2803 9.87671 16.2803C10.0137 16.2803 10.105 16.2357 10.1963 16.1465C10.2877 16.0573 10.3333 15.9682 10.3333 15.9236C10.3333 15.8344 10.2877 15.6561 10.1507 15.4331C10.0137 15.2102 9.83105 14.9427 9.60274 14.6752C9.32877 14.3631 9.10046 14.0955 8.96347 13.9618C8.78082 13.828 8.64384 13.7389 8.55251 13.7389C8.3242 13.7389 8.09589 13.8726 7.91324 14.0955C7.73059 14.3185 7.63927 14.6306 7.63927 14.9427C7.63927 15.2102 7.68493 15.4777 7.82192 15.8344C7.9589 16.1465 8.14155 16.5032 8.41553 16.8153C8.82648 17.2611 9.28311 17.6624 9.87671 17.9299C10.4703 18.1975 11.0639 18.3312 11.7945 18.3312C13.0731 18.3312 14.1233 17.8854 14.9909 16.949C15.8584 16.0127 16.2694 14.8535 16.2694 13.4268C16.2694 12.9809 16.2237 12.6688 16.1781 12.4013C16.1324 12.1338 15.9954 11.9554 15.8584 11.8662C15.5845 11.6433 15.0822 11.465 14.3059 11.2866C13.5297 11.1083 12.7078 11.0191 11.8858 11.0191C11.6575 11.0191 11.4749 11.0637 11.3836 11.1529C11.2922 11.242 11.2466 11.3758 11.2466 11.5541C11.2466 12 11.4749 12.3121 11.9772 12.4904C12.4795 12.6688 13.3014 12.8025 14.3973 12.8025H14.8082C14.8995 12.8025 14.9909 12.8471 15.0365 12.8917C15.0822 12.9809 15.1279 13.0701 15.1279 13.2038C15.0365 13.293 14.8082 13.4268 14.4429 13.5605C14.0776 13.6943 13.8493 13.828 13.6667 13.9618C13.2557 14.2293 12.9361 14.586 12.7078 14.9873C12.4795 15.3885 12.3425 15.7452 12.3425 16.1019C12.3425 16.3248 12.3881 16.5478 12.4795 16.8599C12.5708 17.172 12.6164 17.3503 12.6164 17.3949V17.4841V17.5732C12.3425 17.5732 12.1142 17.3949 11.9315 17.0828C11.7489 16.7707 11.7032 16.3694 11.7032 15.8344V15.7452C11.6575 15.7898 11.6119 15.8344 11.5662 15.8344C11.5205 15.8344 11.4749 15.879 11.3836 15.879C11.3379 15.879 11.2466 15.879 11.2009 15.879C11.1553 15.879 11.1096 15.8344 11.0183 15.8344C11.0183 15.9236 11.0639 15.9682 11.0639 16.0573C11.0639 16.1465 11.0639 16.1911 11.0639 16.2357C11.0639 16.4586 10.9726 16.6815 10.79 16.8599C10.6073 17.0382 10.379 17.1274 10.105 17.1274C9.69406 17.1274 9.28311 16.949 8.82648 16.5478C8.41553 16.1465 8.18721 15.7898 8.18721 15.3885C8.18721 15.2994 8.18721 15.2548 8.23288 15.2102C8.23288 14.9873 8.27854 14.9427 8.3242 14.8981ZM11.2922 15.121C11.3836 15.121 11.5205 15.0764 11.6119 14.9873C11.7032 14.8981 11.7489 14.7643 11.7489 14.6752C11.7489 14.5414 11.6575 14.2739 11.4749 13.828C11.2922 13.3822 11.0639 12.9363 10.79 12.535C10.6073 12.2229 10.379 11.9554 10.1963 11.8217C10.0137 11.6433 9.83105 11.5987 9.6484 11.5987C9.51142 11.5987 9.37443 11.6879 9.19178 11.8662C9.00913 12.0446 8.96347 12.1783 8.96347 12.3567C8.96347 12.4904 9.0548 12.758 9.19178 13.0701C9.37443 13.3822 9.55708 13.6943 9.83105 14.051C10.105 14.4076 10.379 14.7197 10.653 14.9427C10.9269 15.0318 11.1096 15.121 11.2922 15.121ZM12.2511 10.4841L11.1553 7.49682C10.8813 6.73885 10.6986 6.20382 10.516 5.98089C10.379 5.75796 10.242 5.6242 10.0594 5.6242C9.92237 5.6242 9.83105 5.66879 9.73973 5.75796C9.60274 5.89172 9.55708 6.02548 9.55708 6.20382C9.55708 6.51592 9.69406 7.00637 9.92237 7.71975C10.1507 8.43312 10.516 9.41401 10.9726 10.5732C11.0183 10.4841 11.0639 10.4395 11.1553 10.4395C11.2466 10.3949 11.3379 10.3949 11.4292 10.3949C11.4749 10.3949 11.5662 10.3949 11.6575 10.3949C11.7945 10.4395 11.9772 10.4395 12.2511 10.4841ZM13.347 13.3822C13.0731 13.3822 12.7991 13.3376 12.5251 13.293C12.2511 13.2484 12.0228 13.2038 11.7945 13.1146C11.8858 13.3376 11.9772 13.5159 12.0685 13.7389C12.1598 13.9618 12.2055 14.1401 12.2511 14.3631C12.3881 14.1847 12.5708 14.0064 12.7534 13.828C12.9817 13.6497 13.1644 13.5159 13.347 13.3822ZM14.6712 10.7962C15.1279 9.63694 15.4475 8.65605 15.7215 7.89809C15.9498 7.14013 16.0868 6.69427 16.0868 6.51592C16.0868 6.33758 16.0411 6.20382 15.9498 6.07006C15.8584 5.98089 15.7671 5.93631 15.6301 5.93631C15.4475 5.93631 15.2648 6.07006 15.0822 6.38217C14.8995 6.69427 14.6712 7.14013 14.4429 7.80892L13.4384 10.5732L14.6712 10.7962Z" fill="white"/>
    </svg>
    <svg id="xing" viewBox="0 0 24 24">
        <rect x="4" y="4" width="16" height="16" rx="1.5" fill="#005D5E"/>
        <path d="M10.032 8.69131C9.90627 8.47356 9.74664 8.36475 9.55323 8.36475H7.81926C7.70804 8.36475 7.63069 8.40106 7.58711 8.47353C7.53397 8.54608 7.53636 8.63563 7.59442 8.74203L8.76248 10.7662C8.76726 10.7711 8.76726 10.7735 8.76248 10.7735L6.92689 14.0238C6.87854 14.1159 6.87854 14.2029 6.92689 14.2852C6.97538 14.3674 7.05024 14.4085 7.15186 14.4085H8.8858C9.06958 14.4085 9.22677 14.2973 9.35731 14.0747C10.552 11.9564 11.1736 10.8536 11.2219 10.7665L10.032 8.69131Z" fill="white"/>
        <path d="M17.0692 6.37728C17.1224 6.27574 17.1224 6.18627 17.0692 6.10889C17.0255 6.03644 16.9507 6.0001 16.8443 6H15.0958C14.9071 6 14.7524 6.10879 14.6315 6.32646C12.1501 10.7279 10.866 13.006 10.7789 13.1608L13.2384 17.6735C13.3544 17.8911 13.5141 18 13.7172 18H15.4513C15.5577 18 15.6349 17.9637 15.6834 17.8912C15.7318 17.8089 15.7294 17.7195 15.6762 17.6226L13.2384 13.1608V13.1536L17.0692 6.37728Z" fill="white"/>
    </svg>
    <svg id="video" viewBox="0 0 24 24">
        <rect x="4" y="4" width="16" height="16" rx="1.5" fill="#F05654"/>
        <path d="M14.6366 12.0238C14.6307 12.0089 14.6227 11.9951 14.6154 11.9804C14.533 12.023 14.4553 12.0667 14.3743 12.1038C14.2957 12.1401 14.2149 12.1725 14.133 12.2011C14.0497 12.2301 13.9639 12.2522 13.8798 12.277C13.8805 12.2847 13.88 12.2894 13.8813 12.2938C13.8848 12.305 13.8885 12.3162 13.8929 12.327C14.0103 12.6233 14.0622 12.9322 14.066 13.2495C14.0692 13.514 14.0349 13.7744 13.9573 14.0278C13.8405 14.4089 13.6521 14.7502 13.3744 15.0373C12.9687 15.4564 12.4697 15.682 11.8907 15.7346C11.8372 15.7395 11.7833 15.7389 11.7251 15.7409C11.7277 15.7278 11.7273 15.7249 11.7286 15.724C11.7586 15.7014 11.7889 15.6793 11.8188 15.6566C12.4241 15.197 12.9007 14.6303 13.2376 13.9487C13.5177 13.3821 13.66 12.7811 13.6742 12.1494C13.681 11.8407 13.654 11.5345 13.6006 11.2309C13.54 10.8855 13.4448 10.5492 13.3223 10.2207C13.3185 10.2105 13.3069 10.1858 13.2988 10.1712C13.2915 10.1168 13.2891 10.1004 13.2874 10.0903C13.2874 10.0809 13.2869 10.0638 13.2865 10.0603C13.2563 9.77493 13.2046 9.49379 13.1262 9.21778C13.0196 8.84296 12.8685 8.4879 12.6568 8.15997C12.511 7.93401 12.3427 7.72679 12.1376 7.55118C12.1183 7.53477 12.0979 7.5193 12.0737 7.5C12.0729 7.51277 12.07 7.52041 12.0727 7.52526C12.0871 7.55211 12.1029 7.57821 12.1181 7.60468C12.4746 8.21841 12.7876 8.85368 13.0551 9.51113C13.1285 9.69141 13.1955 9.8743 13.2656 10.056L13.2863 10.094C13.2881 10.1047 13.2906 10.1235 13.2976 10.1748C13.3013 10.2707 13.3066 10.3691 13.3083 10.4541C13.3185 10.9524 13.3053 11.4498 13.2545 11.946C13.2311 12.1751 13.2019 12.4033 13.1631 12.6299C13.1145 12.9148 13.0522 13.1967 12.9709 13.4741C12.8709 13.8152 12.7453 14.146 12.5757 14.4591C12.4247 14.7375 12.2436 14.9936 12.0154 15.2145C11.8056 15.4178 11.5672 15.5777 11.2972 15.6899C11.2684 15.702 11.2411 15.7054 11.209 15.6992C10.8403 15.6272 10.5085 15.4754 10.2133 15.2435C9.95815 15.0433 9.76034 14.795 9.60598 14.511C9.44127 14.2078 9.34264 13.8841 9.30853 13.5413C9.28849 13.3396 9.29287 13.1381 9.31701 12.9365C9.34665 12.6899 9.40911 12.4527 9.51006 12.2258C9.66042 11.8877 9.88041 11.6008 10.1549 11.3546C10.3668 11.1646 10.6036 11.0148 10.8705 10.9138C11.0426 10.8488 11.2202 10.8077 11.403 10.786C11.5647 10.767 11.7268 10.7662 11.8885 10.7789C12.0952 10.7951 12.2968 10.8398 12.4907 10.9152C12.5075 10.9218 12.5252 10.926 12.5499 10.9336C12.567 10.7984 12.5936 10.6703 12.6334 10.5452C12.6734 10.4201 12.7272 10.3004 12.7829 10.1814C12.7525 10.1574 12.7194 10.1521 12.6887 10.1422C12.4259 10.0577 12.1562 10.0116 11.8804 9.99604C11.5856 9.97926 11.2937 9.99912 11.0044 10.0566C10.6578 10.1255 10.3343 10.2533 10.0346 10.4409C9.74935 10.6195 9.50298 10.8423 9.28532 11.098C8.80246 11.6653 8.5449 12.3222 8.50519 13.0649C8.49382 13.2785 8.501 13.492 8.52803 13.7048C8.56606 14.0051 8.64203 14.2945 8.76219 14.5722C8.95636 15.0209 9.23964 15.4064 9.59862 15.7365C9.86428 15.9808 10.1669 16.1672 10.504 16.2959C10.8182 16.4161 11.1449 16.4786 11.4797 16.4951C11.7904 16.5102 12.0992 16.4928 12.4048 16.4285C12.8175 16.3418 13.195 16.177 13.5343 15.9258C13.799 15.7297 14.0235 15.4941 14.2195 15.2307C14.6089 14.7075 14.8197 14.1188 14.8567 13.4683C14.8718 13.2025 14.8593 12.9377 14.8156 12.6746C14.778 12.4513 14.7208 12.2338 14.6366 12.0238Z" fill="white"/>
        <path d="M16.1553 8.50739C16.0872 8.25459 15.9914 8.01306 15.8601 7.78618C15.8414 7.75392 15.8206 7.72279 15.7967 7.68457C15.7787 7.71738 15.7637 7.7433 15.7499 7.76968C15.6592 7.94119 15.546 8.09621 15.4064 8.23119C15.1946 8.43561 14.9503 8.58373 14.6625 8.6543C14.6374 8.66045 14.6124 8.66725 14.5876 8.67452C14.3754 8.7367 14.1701 8.81584 13.978 8.92723C13.8464 9.00367 13.7334 9.10052 13.6402 9.22133C13.4668 9.44589 13.383 9.69925 13.3955 9.98262C13.4058 10.2141 13.4719 10.4304 13.5838 10.633C13.5893 10.6429 13.5972 10.6514 13.6085 10.6665C14.5192 10.4432 15.2034 9.92222 15.6764 9.0981C15.6746 9.12588 15.6755 9.1393 15.6727 9.15198C15.6569 9.22338 15.6318 9.29152 15.5997 9.35714C15.5287 9.50172 15.4331 9.62924 15.3265 9.74893C15.1415 9.9568 14.9312 10.1371 14.7104 10.3053C14.443 10.5091 14.1627 10.6937 13.8719 10.8623C13.8506 10.8747 13.8251 10.8827 13.809 10.9097C13.8484 10.9451 13.8858 10.9805 13.9252 11.0136C14.0741 11.1384 14.2366 11.2395 14.4222 11.3008C14.5971 11.3584 14.7752 11.3742 14.9571 11.3424C15.1781 11.304 15.3704 11.2063 15.5391 11.0606C15.7028 10.9194 15.8316 10.7496 15.9402 10.564C16.0031 10.4566 16.0617 10.3465 16.1021 10.2283C16.1865 9.98262 16.2358 9.72936 16.2516 9.47059C16.2718 9.14471 16.2404 8.82311 16.1553 8.50739Z" fill="white"/>
    </svg>
    <svg id="skype" viewBox="0 0 24 24" >
        <g>
            <path d="M20 4H4V20H20V4Z" fill="#15ACE5"/>
            <path d="M17.9984 13.1604C18.0684 12.8011 18.1054 12.4301 18.1054 12.0503C18.1054 8.85816 15.5176 6.2704 12.3255 6.2704C11.9457 6.2704 11.5747 6.30744 11.2154 6.37735C10.7214 6.08828 10.1469 5.92188 9.53321 5.92188C7.69068 5.92188 6.19702 7.41553 6.19702 9.25807C6.19702 9.87173 6.36346 10.4462 6.6525 10.9402C6.58259 11.2995 6.54554 11.6705 6.54554 12.0503C6.54554 15.2425 9.13331 17.8302 12.3255 17.8302C12.7052 17.8302 13.0763 17.7932 13.4356 17.7233C13.9296 18.0123 14.5041 18.1787 15.1177 18.1787C16.9602 18.1787 18.4539 16.6851 18.4539 14.8425C18.454 14.2289 18.2875 13.6544 17.9984 13.1604ZM12.4353 16.0197C10.3815 16.0197 9.35453 15.2495 9.03855 14.2818C8.72258 13.3142 9.41377 13.0377 9.63101 13.0179C9.84824 12.9982 10.3091 13.0508 10.4407 13.4524C10.5776 13.8698 11.0332 14.6966 12.0206 14.7953C13.008 14.894 13.6597 14.4398 13.8572 13.9659C14.0547 13.4919 13.6992 12.8402 12.1786 12.623C10.6579 12.4057 9.07805 11.7343 9.07805 10.2137C9.07805 8.69302 10.8159 8.08082 12.4748 8.08082C14.1337 8.08082 14.9747 9.01773 15.1606 9.38422C15.391 9.83844 15.312 10.5952 14.7656 10.7271C14.1929 10.8654 13.8967 10.5494 13.482 9.77919C13.0531 8.98273 11.5269 9.18674 11.0134 9.64095C10.4999 10.0952 10.6382 10.7469 12.771 11.1616C14.9039 11.5763 15.6938 12.3465 15.6938 13.5512C15.6938 14.7558 14.4891 16.0197 12.4353 16.0197Z" fill="white"/>
        </g>
    </svg>
    <svg id="logo" viewBox="0 0 31 31">
        <path d="M31 16.1361C29.6621 15.7821 28.2588 15.5929 26.8125 15.5929C18.1973 15.5929 11.126 21.9209 10.2822 30.0984C11.9141 30.682 13.6738 31 15.5068 31C23.8574 31 30.666 24.4016 31 16.1361Z" fill="#FEDA00"/>
        <path d="M8.02734 29.0809C8.35547 28.942 8.65137 28.803 8.91504 28.6704C8.31641 28.5875 7.45312 28.4326 6.51074 28.1266C6.99609 28.4727 7.50293 28.7916 8.02734 29.0809Z" fill="#FEDA00"/>
        <path d="M2.29395 23.6174C0.838867 21.2566 0 18.4763 0 15.5C0 6.93958 6.94238 0 15.5068 0C20.5674 0 25.0615 2.42297 27.8916 6.17163C25.5371 8.41016 25.4053 11.8542 25.4619 13.4351C24.3135 11.9965 22.625 9.25024 22.2197 5.19617C18.9785 8.20398 20.0586 12.585 20.667 14.4159C19.1133 13.3043 16.8174 11.1465 15.1963 7.354C12.8994 11.0811 15.1963 15.0697 16.2764 16.639C14.5205 15.9851 11.6162 14.5466 9.0498 11.2772C7.90234 15.462 11.2109 18.666 12.6973 19.9084C10.8057 19.7777 7.63184 19.1238 4.25488 16.7045C4.38965 21.02 8.44238 23.2432 10.1982 24.0278C8.55273 24.3818 5.75293 24.6294 2.29395 23.6174Z" fill="#FEDA00"/>
        <path d="M29.2871 8.38708C29.9521 9.67224 30.4434 11.0621 30.7275 12.5258C30.5459 13.024 30.416 13.4724 30.3242 13.8274C29.8525 12.6396 29.3145 10.7816 29.2871 8.38708Z" fill="#FEDA00"/>
    </svg>
</svg>

