<svg width="16" height="16" viewBox="0 0 16 16" fill="none" xmlns="http://www.w3.org/2000/svg">
<rect width="16" height="16" rx="3" fill="#73A3FF"/>
<path fill-rule="evenodd" clip-rule="evenodd" d="M4.0371 3.81104C4.11388 3.62294 4.29685 3.5 4.50002 3.5H11.5C11.7762 3.5 12 3.72386 12 4C12 4.27614 11.7762 4.5 11.5 4.5H5.72494L8.93324 7.64282C9.02925 7.73687 9.08335 7.8656 9.08335 8C9.08335 8.1344 9.02925 8.26313 8.93324 8.35718L5.72494 11.5H11.5C11.7762 11.5 12 11.7239 12 12C12 12.2761 11.7762 12.5 11.5 12.5H4.50002C4.29685 12.5 4.11388 12.3771 4.0371 12.189C3.96031 12.0009 4.00499 11.785 4.15013 11.6428L7.86884 8L4.15013 4.35718C4.00499 4.21501 3.96031 3.99914 4.0371 3.81104Z" fill="white"/>
</svg>
