<?xml version="1.0" encoding="utf-8"?>
<svg xmlns="http://www.w3.org/2000/svg">
    <svg id="skype" viewBox="0 0 1250 1250" width="800pt" height="800pt"  >
        <g>
            <path d="M20 4H4V20H20V4Z" fill="#15ACE5"/>
            <path d="M17.9984 13.1604C18.0684 12.8011 18.1054 12.4301 18.1054 12.0503C18.1054 8.85816 15.5176 6.2704 12.3255 6.2704C11.9457 6.2704 11.5747 6.30744 11.2154 6.37735C10.7214 6.08828 10.1469 5.92188 9.53321 5.92188C7.69068 5.92188 6.19702 7.41553 6.19702 9.25807C6.19702 9.87173 6.36346 10.4462 6.6525 10.9402C6.58259 11.2995 6.54554 11.6705 6.54554 12.0503C6.54554 15.2425 9.13331 17.8302 12.3255 17.8302C12.7052 17.8302 13.0763 17.7932 13.4356 17.7233C13.9296 18.0123 14.5041 18.1787 15.1177 18.1787C16.9602 18.1787 18.4539 16.6851 18.4539 14.8425C18.454 14.2289 18.2875 13.6544 17.9984 13.1604ZM12.4353 16.0197C10.3815 16.0197 9.35453 15.2495 9.03855 14.2818C8.72258 13.3142 9.41377 13.0377 9.63101 13.0179C9.84824 12.9982 10.3091 13.0508 10.4407 13.4524C10.5776 13.8698 11.0332 14.6966 12.0206 14.7953C13.008 14.894 13.6597 14.4398 13.8572 13.9659C14.0547 13.4919 13.6992 12.8402 12.1786 12.623C10.6579 12.4057 9.07805 11.7343 9.07805 10.2137C9.07805 8.69302 10.8159 8.08082 12.4748 8.08082C14.1337 8.08082 14.9747 9.01773 15.1606 9.38422C15.391 9.83844 15.312 10.5952 14.7656 10.7271C14.1929 10.8654 13.8967 10.5494 13.482 9.77919C13.0531 8.98273 11.5269 9.18674 11.0134 9.64095C10.4999 10.0952 10.6382 10.7469 12.771 11.1616C14.9039 11.5763 15.6938 12.3465 15.6938 13.5512C15.6938 14.7558 14.4891 16.0197 12.4353 16.0197Z" fill="white"/>
        </g>
    </svg>
</svg>