<?xml version="1.0" encoding="utf-8"?>
<svg xmlns="http://www.w3.org/2000/svg">
    <svg id="xing" viewBox="0 0 24 24">
        <rect x="4" y="4" width="16" height="16" rx="1.5" fill="#005D5E"/>
        <path d="M10.032 8.69131C9.90627 8.47356 9.74664 8.36475 9.55323 8.36475H7.81926C7.70804 8.36475 7.63069 8.40106 7.58711 8.47353C7.53397 8.54608 7.53636 8.63563 7.59442 8.74203L8.76248 10.7662C8.76726 10.7711 8.76726 10.7735 8.76248 10.7735L6.92689 14.0238C6.87854 14.1159 6.87854 14.2029 6.92689 14.2852C6.97538 14.3674 7.05024 14.4085 7.15186 14.4085H8.8858C9.06958 14.4085 9.22677 14.2973 9.35731 14.0747C10.552 11.9564 11.1736 10.8536 11.2219 10.7665L10.032 8.69131Z" fill="white"/>
        <path d="M17.0692 6.37728C17.1224 6.27574 17.1224 6.18627 17.0692 6.10889C17.0255 6.03644 16.9507 6.0001 16.8443 6H15.0958C14.9071 6 14.7524 6.10879 14.6315 6.32646C12.1501 10.7279 10.866 13.006 10.7789 13.1608L13.2384 17.6735C13.3544 17.8911 13.5141 18 13.7172 18H15.4513C15.5577 18 15.6349 17.9637 15.6834 17.8912C15.7318 17.8089 15.7294 17.7195 15.6762 17.6226L13.2384 13.1608V13.1536L17.0692 6.37728Z" fill="white"/>
    </svg>
</svg>